<svg width="38" height="38" viewBox="0 0 38 38" fill="none" xmlns="http://www.w3.org/2000/svg">
<path d="M20.4667 26.3333H17.5333" stroke="#1D2C4B" stroke-width="1.5" stroke-linecap="round" stroke-linejoin="round"/>
<path fill-rule="evenodd" clip-rule="evenodd" d="M23.5833 17.196V17.1667V17.1667C23.5833 14.6358 21.5309 12.5833 19 12.5833V12.5833C16.4691 12.5833 14.4167 14.6358 14.4167 17.1667V17.1667V17.196V19.462C14.4167 19.759 14.2489 20.0294 13.984 20.1623L13.5229 20.3924C12.9473 20.6812 12.5833 21.2697 12.5833 21.9132V21.9132C12.5833 22.8518 13.3442 23.6127 14.2828 23.6127H23.7172C24.6558 23.6127 25.4167 22.8518 25.4167 21.9132V21.9132C25.4167 21.2697 25.0527 20.6812 24.4771 20.3933L24.016 20.1633C23.7511 20.0294 23.5833 19.759 23.5833 19.462V17.196Z" stroke="#1D2C4B" stroke-width="1.5" stroke-linecap="round" stroke-linejoin="round"/>
<circle cx="25" cy="12" r="5" fill="#FF5630" stroke="white" stroke-width="2"/>
</svg>
