<svg width="38" height="38" viewBox="0 0 38 38" fill="none" xmlns="http://www.w3.org/2000/svg">
<path d="M20.9445 17.0555C22.0185 18.1294 22.0185 19.8706 20.9445 20.9445C19.8706 22.0185 18.1294 22.0185 17.0555 20.9445C15.9815 19.8706 15.9815 18.1294 17.0555 17.0555C18.1294 15.9815 19.8706 15.9815 20.9445 17.0555" stroke="#1D2C4B" stroke-width="1.5" stroke-linecap="round" stroke-linejoin="round"/>
<path fill-rule="evenodd" clip-rule="evenodd" d="M22.8317 25.1646V25.1646C23.2927 25.6257 24.0417 25.6257 24.5027 25.1646L25.1646 24.5027C25.6257 24.0417 25.6257 23.2927 25.1646 22.8317V22.8317C24.8144 22.4815 24.7117 21.9562 24.9042 21.4997C24.9244 21.4512 24.9446 21.4026 24.9638 21.3531C25.1316 20.9259 25.5477 20.6509 26.0061 20.6509H26.0675C26.7202 20.6509 27.2491 20.122 27.2491 19.4693V18.5334C27.2491 17.8807 26.7202 17.3518 26.0675 17.3518H26.0061C25.5477 17.3518 25.1316 17.0759 24.9638 16.6497C24.9446 16.6002 24.9244 16.5516 24.9042 16.503C24.7117 16.0465 24.8144 15.5212 25.1646 15.1711V15.1711C25.6257 14.71 25.6257 13.9611 25.1646 13.5L24.5027 12.8382C24.0417 12.3771 23.2927 12.3771 22.8317 12.8382V12.8382C22.4815 13.1883 21.9562 13.291 21.4997 13.0985C21.4512 13.0783 21.4026 13.0582 21.3531 13.0389C20.9259 12.8684 20.65 12.4513 20.65 11.993V11.9316C20.65 11.2789 20.1211 10.75 19.4684 10.75H18.5325C17.8789 10.75 17.35 11.2789 17.35 11.9316V11.993C17.35 12.4513 17.0741 12.8675 16.6478 13.0352C16.5983 13.0554 16.5497 13.0747 16.5012 13.0957C16.0447 13.2882 15.5194 13.1856 15.1692 12.8354V12.8354C14.7082 12.3743 13.9592 12.3743 13.4982 12.8354L12.8354 13.4972C12.3743 13.9583 12.3743 14.7072 12.8354 15.1683V15.1683C13.1856 15.5185 13.2882 16.0437 13.0957 16.5002C13.0747 16.5497 13.0554 16.5983 13.0362 16.6478C12.8684 17.0741 12.4513 17.35 11.993 17.35H11.9316C11.2789 17.35 10.75 17.8789 10.75 18.5316V19.4675C10.75 20.1211 11.2789 20.65 11.9316 20.65H11.993C12.4513 20.65 12.8675 20.9259 13.0352 21.3522C13.0545 21.4017 13.0747 21.4502 13.0948 21.4988C13.2873 21.9553 13.1847 22.4806 12.8345 22.8307V22.8307C12.3734 23.2918 12.3734 24.0407 12.8345 24.5018L13.4963 25.1637C13.9574 25.6247 14.7063 25.6247 15.1674 25.1637V25.1637C15.5176 24.8135 16.0428 24.7108 16.4993 24.9033C16.5479 24.9235 16.5965 24.9437 16.646 24.9629C17.0732 25.1307 17.3482 25.5468 17.3482 26.0052V26.0666C17.3482 26.7192 17.8771 27.2482 18.5297 27.2482H19.4657C20.1183 27.2482 20.6472 26.7192 20.6472 26.0666V26.0052C20.6472 25.5468 20.9232 25.1307 21.3494 24.9629C21.3989 24.9437 21.4475 24.9235 21.4961 24.9033C21.9553 24.7117 22.4806 24.8144 22.8317 25.1646V25.1646Z" stroke="#1D2C4B" stroke-width="1.5" stroke-linecap="round" stroke-linejoin="round"/>
</svg>
