<svg width="22" height="22" viewBox="0 0 22 22" fill="none" xmlns="http://www.w3.org/2000/svg">
<path d="M16.5 4.58333H19.25" stroke="#0065FF" stroke-width="1.5" stroke-linecap="round" stroke-linejoin="round"/>
<path d="M2.75 4.58333H12.8333" stroke="#0065FF" stroke-width="1.5" stroke-linecap="round" stroke-linejoin="round"/>
<path d="M9.16666 11H19.25" stroke="#0065FF" stroke-width="1.5" stroke-linecap="round" stroke-linejoin="round"/>
<path d="M2.75 11H5.5" stroke="#0065FF" stroke-width="1.5" stroke-linecap="round" stroke-linejoin="round"/>
<path d="M16.5 17.4167H19.25" stroke="#0065FF" stroke-width="1.5" stroke-linecap="round" stroke-linejoin="round"/>
<path d="M2.75 17.4167H12.8333" stroke="#0065FF" stroke-width="1.5" stroke-linecap="round" stroke-linejoin="round"/>
<path d="M15.963 3.28697C16.679 4.00293 16.679 5.16374 15.963 5.8797C15.2471 6.59566 14.0862 6.59566 13.3703 5.8797C12.6543 5.16374 12.6543 4.00293 13.3703 3.28697C14.0862 2.57101 15.2471 2.57101 15.963 3.28697" stroke="#0065FF" stroke-width="1.5" stroke-linecap="round" stroke-linejoin="round"/>
<path d="M8.6297 9.70364C9.34566 10.4196 9.34566 11.5804 8.6297 12.2964C7.91374 13.0123 6.75293 13.0123 6.03697 12.2964C5.32101 11.5804 5.32101 10.4196 6.03697 9.70364C6.75293 8.98768 7.91374 8.98768 8.6297 9.70364" stroke="#0065FF" stroke-width="1.5" stroke-linecap="round" stroke-linejoin="round"/>
<path d="M15.963 16.1203C16.679 16.8363 16.679 17.9971 15.963 18.713C15.2471 19.429 14.0862 19.429 13.3703 18.713C12.6543 17.9971 12.6543 16.8363 13.3703 16.1203C14.0862 15.4044 15.2471 15.4044 15.963 16.1203" stroke="#0065FF" stroke-width="1.5" stroke-linecap="round" stroke-linejoin="round"/>
</svg>
